<?xml version="1.0" encoding="utf-8"?>
<!-- Generator: Adobe Illustrator 23.0.2, SVG Export Plug-In . SVG Version: 6.00 Build 0)  -->
<svg version="1.1" id="Layer_1" xmlns="http://www.w3.org/2000/svg" xmlns:xlink="http://www.w3.org/1999/xlink" x="0px" y="0px"
	 viewBox="0 0 1000 600" style="enable-background:new 0 0 1000 600;" xml:space="preserve">
<style type="text/css">
	.st0{fill:#1B2053;}
	.st1{fill:#F8AF3F;}
	.st2{fill:#0C5C73;}
	.st3{fill:#B2A1BE;}
	.st4{fill:#8B8EC2;}
	.st5{fill:#DC90AB;}
	.st6{fill:#690844;}
	.st7{fill:#07A1B9;}
</style>
<g>
	<g>
		<circle class="st0" cx="877.7" cy="401.7" r="35.3"/>
		<path class="st1" d="M878,437.1c-19.5,0-35.3-15.8-35.3-35.3s15.8-35.3,35.3-35.3V437.1z"/>
		<path class="st2" d="M851.9,378.2c6.4-7.1,15.8-11.5,26.1-11.5c12.7,0,23.9,6.8,30.1,16.9L878,402L851.9,378.2z"/>
	</g>
	<g id="Layer_4">
		
			<ellipse transform="matrix(0.1602 -0.9871 0.9871 0.1602 427.4681 1065.829)" class="st3" cx="840.1" cy="281.7" rx="48.6" ry="48.6"/>
		<path class="st4" d="M840.5,330.2c26.8,0,48.6-21.7,48.6-48.6c0-26.8-21.7-48.6-48.6-48.6V330.2z"/>
		<path class="st1" d="M889.1,282.1c0,26.8-21.7,48.6-48.6,48.6v-48.6H889.1z"/>
	</g>
	<g id="Layer_3_2_">
		<circle class="st5" cx="920.4" cy="518.7" r="42.7"/>
		<path class="st6" d="M877.7,518.7h42.7V476C896.8,476,877.7,495.2,877.7,518.7z"/>
		<path class="st7" d="M963.5,518.7c0,23.6-19.1,42.7-42.7,42.7c-23.6,0-42.7-19.1-42.7-42.7H963.5z"/>
	</g>
	<g id="Layer_3_1_">
		<circle class="st5" cx="714.5" cy="534.8" r="26.6"/>
		<path class="st6" d="M687.9,534.8h26.6v-26.6C699.8,508.3,687.9,520.2,687.9,534.8z"/>
		<path class="st7" d="M741.3,534.8c0,14.7-11.9,26.6-26.6,26.6s-26.6-11.9-26.6-26.6H741.3z"/>
	</g>
	<g>
		<circle class="st0" cx="920.8" cy="207.6" r="35.3"/>
		<path class="st1" d="M920.5,172.3c19.5,0,35.4,15.7,35.4,35.3c0,19.5-15.7,35.4-35.3,35.4L920.5,172.3z"/>
		<path class="st2" d="M946.7,231.1c-6.4,7.1-15.7,11.6-26.1,11.6c-12.7,0-23.9-6.7-30.2-16.8l30.1-18.5L946.7,231.1z"/>
	</g>
	<g id="Layer_3_5_">
		<circle class="st5" cx="947.2" cy="324.6" r="42.7"/>
		<path class="st6" d="M990,324.5l-42.7,0.1l0.1,42.7C970.9,367.3,990,348.1,990,324.5z"/>
		<path class="st7" d="M904.2,324.7c-0.1-23.6,19-42.8,42.6-42.8c23.6-0.1,42.8,19,42.8,42.6L904.2,324.7z"/>
	</g>
	<g id="Layer_3_4_">
		<circle class="st5" cx="929.7" cy="86.9" r="42.7"/>
		<path class="st6" d="M972.4,86.8l-42.7,0.1l0.1,42.7C953.4,129.5,972.4,110.3,972.4,86.8z"/>
		<path class="st7" d="M886.6,87c-0.1-23.6,19-42.8,42.6-42.8c23.6-0.1,42.8,19,42.8,42.6L886.6,87z"/>
	</g>
	<g id="Layer_3_3_">
		<circle class="st5" cx="813.5" cy="478.8" r="26.6"/>
		<path class="st6" d="M840.1,478.6l-26.6,0.1l0.1,26.6C828.3,505.4,840.1,493.4,840.1,478.6z"/>
		<path class="st7" d="M786.7,478.9c0-14.7,11.8-26.6,26.5-26.7c14.7,0,26.6,11.8,26.7,26.5L786.7,478.9z"/>
	</g>
</g>
</svg>
